<svg width="3196" height="712" viewBox="0 0 3196 712" fill="none" xmlns="http://www.w3.org/2000/svg">
<path d="M2484.44 557.05C2432.8 557.05 2393.34 542.996 2366.05 514.89C2329.44 480.41 2311.14 430.733 2311.14 365.858C2311.14 299.677 2329.44 250 2366.05 216.827C2393.34 188.72 2432.8 174.667 2484.44 174.667C2536.08 174.667 2575.54 188.72 2602.83 216.827C2639.27 250 2657.49 299.677 2657.49 365.858C2657.49 430.733 2639.27 480.41 2602.83 514.89C2575.54 542.996 2536.08 557.05 2484.44 557.05ZM2555.77 459.983C2573.25 437.923 2581.99 406.548 2581.99 365.858C2581.99 325.332 2573.17 294.039 2555.52 271.979C2538.04 249.755 2514.34 238.643 2484.44 238.643C2454.53 238.643 2430.68 249.673 2412.86 271.733C2395.05 293.794 2386.15 325.169 2386.15 365.858C2386.15 406.548 2395.05 437.923 2412.86 459.983C2430.68 482.044 2454.53 493.074 2484.44 493.074C2514.34 493.074 2538.12 482.044 2555.77 459.983Z" fill="white"/>
<path d="M2289.08 185.697V249.673H2180.98V547H2105V249.673H1996.41V185.697H2289.08Z" fill="white"/>
<path d="M1795.66 557.05C1744.02 557.05 1704.56 542.996 1677.27 514.89C1640.66 480.41 1622.36 430.733 1622.36 365.858C1622.36 299.677 1640.66 250 1677.27 216.827C1704.56 188.72 1744.02 174.667 1795.66 174.667C1847.3 174.667 1886.76 188.72 1914.05 216.827C1950.49 250 1968.71 299.677 1968.71 365.858C1968.71 430.733 1950.49 480.41 1914.05 514.89C1886.76 542.996 1847.3 557.05 1795.66 557.05ZM1866.99 459.983C1884.47 437.923 1893.21 406.548 1893.21 365.858C1893.21 325.332 1884.39 294.039 1866.74 271.979C1849.26 249.755 1825.56 238.643 1795.66 238.643C1765.75 238.643 1741.9 249.673 1724.08 271.733C1706.27 293.794 1697.37 325.169 1697.37 365.858C1697.37 406.548 1706.27 437.923 1724.08 459.983C1741.9 482.044 1765.75 493.074 1795.66 493.074C1825.56 493.074 1849.34 482.044 1866.99 459.983Z" fill="white"/>
<path d="M1488.53 547V385.713H1347.34V547H1272.58V185.697H1347.34V323.453H1488.53V185.697H1563.53V547H1488.53Z" fill="white"/>
<path d="M1091.68 417.088H1014.96V547H939.954V185.697H1097.32C1133.6 185.697 1162.52 195.012 1184.09 213.641C1205.66 232.27 1216.45 261.112 1216.45 300.167C1216.45 342.817 1205.66 372.967 1184.09 390.615C1162.52 408.264 1131.72 417.088 1091.68 417.088ZM1126.98 341.837C1136.78 333.176 1141.69 319.45 1141.69 300.657C1141.69 281.865 1136.7 268.465 1126.73 260.458C1116.93 252.451 1103.12 248.447 1085.31 248.447H1014.96V354.828H1085.31C1103.12 354.828 1117.01 350.498 1126.98 341.837Z" fill="white"/>
<path d="M3161.54 547V185.56H3195.68V547H3161.54Z" fill="white"/>
<path d="M2781.53 547L2923.6 185.56H2962.25L3100.8 547H3065.66L3024 433.548H2859.34L2816.67 547H2781.53ZM2870.89 404.432H3012.45L2941.67 214.676L2870.89 404.432Z" fill="white"/>
<path d="M336.663 0.845983C336.586 0.922987 334.314 1.077 331.542 1.231C328.809 1.38501 326.114 1.57752 325.575 1.61603C325.035 1.69303 323.418 1.88554 321.917 2.00105C320.454 2.15506 316.989 2.61708 314.216 3.04061C311.483 3.46413 308.518 3.88765 307.671 4.04166C306.439 4.19567 294.349 6.89082 292.463 7.39135C287.265 8.81593 277.832 11.8576 276.099 12.6661C275.676 12.8587 274.174 13.4362 272.75 13.9752C266.474 16.2853 255.385 21.7141 248.378 25.9109C243.757 28.683 235.171 34.3429 233.362 35.8059C232.938 36.1525 231.745 37.0765 230.667 37.8851C227.779 40.0412 220.31 46.3555 217.075 49.3972C213.918 52.3619 213.341 52.7854 212.186 52.9009C207.257 53.3244 198.633 54.826 191.78 56.3661C191.356 56.4816 190.624 56.6356 190.162 56.7511C188.738 57.0206 177.919 60.2933 175.57 61.1404C154.317 68.8023 132.294 81.7775 113.62 97.7174C106.497 103.801 93.2525 116.737 88.2088 122.513C69.2272 144.382 57.4455 164.365 49.5526 188.005C46.5109 197.13 43.7003 208.257 42.7762 214.494C42.6607 215.534 42.4682 216.766 42.3527 217.19C42.2757 217.652 42.1217 218.807 42.0062 219.769C41.8907 220.732 41.6982 221.925 41.6212 222.464C41.4671 223.388 41.1976 225.737 40.8511 229.202C40.6971 231.012 40.3121 236.749 40.0811 241.061C39.9656 243.217 39.773 244.218 39.2725 244.719C38.4255 245.527 32.8812 253.035 30.7635 256.154C25.7198 263.623 19.2514 275.867 15.6322 284.645C10.8964 296.235 6.04517 313.021 4.27407 323.918C4.15856 324.534 4.00455 325.496 3.88905 326.035C3.54253 327.883 3.27301 329.693 3.119 330.848C3.042 331.464 2.81099 333.543 2.54147 335.468C2.31046 337.355 2.04094 339.78 1.92544 340.858C1.80993 341.898 1.65592 343.477 1.57892 344.324C0.577861 353.064 0.577861 378.437 1.57892 387.254C1.65592 387.985 1.80993 389.718 1.96394 391.104C2.23345 393.953 2.34896 394.839 2.92649 398.612C3.61953 403.27 3.73504 403.925 4.31257 407.082C4.65909 408.776 5.00561 410.624 5.08261 411.24C6.27618 417.94 11.8205 435.805 14.6696 442.119C14.9392 442.735 15.6322 444.391 16.2097 445.777C17.9038 449.781 23.4866 460.639 26.2203 465.182C33.3817 477.041 41.9292 488.36 50.5537 497.408C51.7087 498.602 52.2862 499.564 52.4018 500.488C52.8638 504.454 53.0563 506.033 53.1718 506.572C53.2103 506.918 53.4028 508.035 53.5183 509.113C53.6723 510.152 53.8648 511.308 53.9418 511.616C54.0188 511.924 54.2114 512.809 54.3269 513.541C54.4424 514.272 54.8274 516.005 55.1354 517.391C55.4819 518.777 55.8284 520.317 55.9054 520.779C56.6755 524.668 59.5247 533.985 61.8733 540.261C64.4144 546.961 69.6507 558.242 72.8849 563.901C83.5115 582.575 95.2546 597.783 111.888 614.455C118.587 621.154 120.435 622.925 125.402 627.315C132.101 633.282 144.191 642.061 152.815 647.297C160.015 651.648 170.719 656.884 178.111 659.733C184.888 662.351 194.629 665.547 197.747 666.202C198.055 666.279 200.057 666.779 202.175 667.318C205.948 668.242 214.534 670.013 217.576 670.437C218.423 670.552 219.54 670.745 220.079 670.822C220.618 670.899 221.811 671.053 222.774 671.168C225.623 671.476 227.856 671.746 229.704 671.939C231.398 672.131 236.558 672.478 240.908 672.709C242.102 672.786 243.295 672.978 243.603 673.132C244.219 673.517 246.992 675.635 247.646 676.212C248.493 677.021 259.235 684.105 262.431 685.992C264.241 687.07 269.169 689.65 273.404 691.767C288.15 699.083 300.818 703.472 318.452 707.437C318.683 707.476 319.376 707.63 319.992 707.746C320.646 707.861 322.109 708.131 323.264 708.362C324.419 708.593 325.998 708.862 326.73 708.978C327.461 709.093 329.04 709.324 330.195 709.517C331.35 709.709 333.198 709.979 334.237 710.094C335.316 710.21 336.586 710.402 337.125 710.479C337.664 710.595 339.281 710.749 340.783 710.864C342.246 711.018 344.017 711.172 344.633 711.249C352.526 712.25 380.941 712.25 387.255 711.249C387.755 711.172 389.373 711.018 390.836 710.903C392.337 710.749 393.954 710.595 394.493 710.518C395.032 710.441 396.303 710.248 397.304 710.094C398.344 709.94 399.46 709.786 399.807 709.748C400.192 709.671 401.347 709.478 402.386 709.324C409.933 708.285 421.868 705.32 430.685 702.317C453.941 694.462 476.772 680.833 495.176 663.892C497.102 662.12 498.757 660.58 498.873 660.465C498.988 660.349 500.451 660.08 502.145 659.849C507.343 659.156 507.767 659.079 512.31 658.27C521.319 656.692 533.409 653.265 542.149 649.838C542.804 649.607 543.343 649.415 543.381 649.415C543.497 649.415 546.23 648.221 550.235 646.45C557.781 643.1 569.37 636.748 576.994 631.781C582.307 628.316 594.666 619.229 595.86 617.881C595.975 617.766 596.553 617.304 597.13 616.842C605.254 610.605 621.926 593.972 630.743 583.23C642.909 568.445 651.572 553.968 659.388 535.294C660.582 532.407 663.546 523.859 664.778 519.701C665.895 516.005 667.859 508.343 668.475 505.263C668.783 503.723 669.399 500.604 669.591 499.564C669.707 498.987 669.861 498.14 669.938 497.639C670.053 497.177 670.323 495.406 670.554 493.712C670.785 492.018 671.054 490.208 671.131 489.669C671.247 489.13 671.401 487.59 671.555 486.204C671.67 484.818 671.863 483.162 671.94 482.546C672.094 481.122 672.517 474.807 672.633 471.881C672.71 469.802 672.864 469.533 676.137 465.105C679.448 460.6 684.569 452.823 687.033 448.472C689.227 444.699 695.465 431.839 697.043 427.873C699.199 422.483 701.933 414.821 703.127 410.855C704.821 405.08 705.167 403.81 706.515 397.842C707.708 392.605 708.247 390.026 708.863 386.099C708.979 385.367 709.248 383.788 709.441 382.633C709.633 381.478 709.903 379.746 710.018 378.783C710.134 377.821 710.326 376.434 710.403 375.703C710.519 374.971 710.673 373.123 710.827 371.66C710.943 370.159 711.097 368.542 711.212 368.003C711.905 363.575 712.213 338.818 711.636 331.117C710.904 321.569 710.095 314.985 708.478 306.207C706.669 296.196 702.434 281.796 698.66 272.71C697.775 270.592 696.889 268.32 696.658 267.704C695.811 265.394 688.688 251.803 685.955 247.298C679.332 236.364 672.633 227.393 663.7 217.575L660.158 213.647L659.773 210.644C659.542 208.989 659.273 206.948 659.157 206.101C658.387 200.095 656.346 191.008 654.152 183.577C646.721 158.628 632.591 133.717 613.417 111.771C608.604 106.265 608.065 105.726 600.672 98.2949C592.356 89.9015 585.849 84.0106 581.421 80.6609C581.229 80.5069 580.074 79.6214 578.919 78.6973C568.408 70.3039 552.083 60.6013 539.916 55.519C538.607 54.98 537.028 54.287 536.374 54.0175C529.251 50.8988 511.617 45.47 504.995 44.3919C504.263 44.2764 503.377 44.0839 503.069 44.0069C502.761 43.9299 501.876 43.7374 501.144 43.6219C500.413 43.5064 499.527 43.3139 499.219 43.2369C496.986 42.5823 483.087 40.8882 476.695 40.5032C469.611 40.1182 469.072 40.0027 468.071 39.2326C461.718 34.3429 452.593 28.144 447.626 25.4104C440.927 21.7527 432.379 17.6714 426.373 15.3228C422.484 13.7827 418.981 12.3966 418.557 12.2041C416.671 11.4726 407.815 8.77743 404.119 7.81487C403.811 7.73787 402.579 7.42985 401.424 7.12183C400.269 6.81382 398.267 6.31329 396.996 6.04377C395.725 5.77426 394.532 5.50474 394.301 5.46624C394.108 5.42774 392.376 5.08122 390.451 4.7347C388.564 4.38818 386.639 4.00316 386.215 3.92616C385.83 3.84915 384.791 3.69514 383.905 3.57964C383.058 3.46413 381.942 3.27162 381.403 3.19461C380.864 3.07911 379.67 2.9251 378.707 2.80959C377.745 2.69409 376.32 2.54008 375.55 2.42457C372.355 2.00105 371.046 1.88554 367.734 1.61603C365.848 1.46202 363.692 1.30801 362.922 1.231C361.266 1.03849 336.856 0.730476 336.663 0.845983ZM354.682 37.038C359.033 37.346 364.154 37.9236 366.964 38.4241C368.042 38.6166 369.313 38.8476 369.852 38.9631C388.757 42.2358 409.163 52.4774 424.525 66.4537C428.067 69.6878 428.991 70.6119 433.188 75.1936C450.013 93.4822 462.334 119.24 467.994 147.963C468.61 151.12 469.226 154.585 469.342 155.663C469.496 156.703 469.688 157.858 469.765 158.166C469.842 158.474 469.996 159.706 470.15 160.861C470.266 162.016 470.42 163.672 470.535 164.519C471.767 174.414 472.037 201.519 470.959 209.951C470.843 210.567 470.689 212.646 470.574 214.571C470.42 216.458 470.227 218.537 470.15 219.192C470.073 219.808 469.881 221.194 469.765 222.272C469.419 225.083 468.841 229.279 468.417 231.705C468.225 232.86 467.994 234.439 467.878 235.17C466.762 242.331 463.913 253.805 461.295 261.544C452.093 288.765 437.5 309.017 416.825 323.186C413.552 325.419 407.507 328.807 402.848 331.04C398.19 333.235 389.527 336.623 389.257 336.315C389.142 336.238 389.411 335.738 389.796 335.237C390.528 334.313 395.571 326.151 398.036 321.992C400.962 317.064 405.235 308.286 408.162 301.201C408.431 300.547 408.855 299.507 409.124 298.891C410.857 294.771 415.362 279.602 416.209 275.212C416.286 274.673 416.748 272.517 417.171 270.4C417.595 268.282 418.057 265.856 418.172 265.009C418.288 264.162 418.442 262.93 418.557 262.314C418.634 261.66 418.827 260.119 418.942 258.849C419.096 257.578 419.289 256.115 419.366 255.576C420.174 250.994 420.174 231.897 419.327 226.122C419.25 225.468 419.096 224.004 418.942 222.849C418.403 217.536 417.133 210.952 415.285 203.791C414.091 199.248 410.703 188.736 409.702 186.465C409.432 185.81 408.354 183.308 407.353 180.882C405.081 175.453 398.883 163.094 395.918 158.204C394.724 156.202 393.723 154.508 393.723 154.431C393.723 154.123 386.831 143.727 383.867 139.646C372.355 123.591 356.954 107.458 340.783 94.4062C337.241 91.5571 333.506 88.7079 331.504 87.3218C331.042 87.0138 328.963 85.5507 326.884 84.1261C306.593 69.9958 284.146 59.9083 263.009 55.365C261.738 55.057 260.544 54.7875 260.39 54.672C260.082 54.518 262.238 53.0549 263.009 52.9009C263.201 52.8239 264.626 52.2464 266.089 51.5533C276.869 46.548 294.041 41.4658 306.131 39.7717C307.209 39.6177 308.403 39.4251 308.826 39.3481C309.558 39.1941 310.751 39.0401 314.409 38.6166C315.371 38.5011 316.565 38.3471 317.104 38.2316C317.643 38.1546 319.453 37.9621 321.147 37.808C322.841 37.6925 324.997 37.5385 325.96 37.4615C326.922 37.3845 330.734 37.192 334.43 37.0765C338.126 36.9225 341.206 36.7685 341.245 36.73C341.399 36.6145 351.294 36.807 354.682 37.038ZM511.54 78.6203C521.05 82.432 533.871 89.4779 543.304 96.1003C558.166 106.457 575.453 121.897 583.346 131.792C584.193 132.831 584.963 133.794 585.079 133.909C587.736 136.566 594.936 148.117 598.285 155.086C601.519 161.862 605.216 172.104 606.024 176.339C606.101 176.839 606.371 177.917 606.563 178.764C606.794 179.611 607.102 180.805 607.179 181.46C607.295 182.076 607.487 182.961 607.564 183.385C607.718 184.193 608.411 188.621 608.758 190.893C610.028 199.864 609.643 215.033 607.795 225.93C604.677 244.488 597.477 263.623 587.043 280.949C584.193 285.685 577.764 295.349 577.032 296.003C576.878 296.119 576.031 297.236 575.107 298.468C569.447 306.091 554.624 321.761 544.459 330.886C517.7 354.95 490.133 370.12 463.412 375.472C460.756 376.011 457.752 376.55 456.674 376.704C455.635 376.82 454.441 377.012 454.095 377.089C449.705 377.898 431.648 377.898 429.03 377.051C428.799 376.974 427.721 376.82 426.643 376.704C417.749 375.703 402.348 370.698 394.108 366.077L393.146 365.538L394.493 365.23C395.225 365.076 396.457 364.845 397.189 364.691C401.501 363.96 418.827 359.109 422.407 357.645C422.831 357.453 425.526 356.413 428.375 355.297C436.961 351.947 446.51 347.173 454.364 342.283C486.051 322.493 508.113 295.156 520.896 259.811C522.474 255.461 525.439 245.72 525.94 243.256C526.055 242.717 526.479 240.907 526.902 239.213C528.019 234.554 529.751 225.391 530.213 221.733C530.329 220.847 530.483 219.615 530.56 219.038C530.906 217.074 531.137 215.303 531.368 212.839C531.484 211.453 531.677 209.643 531.754 208.796C532.755 198.747 532.755 172.027 531.792 166.251C531.715 165.712 531.522 163.826 531.368 162.016C531.253 160.206 531.06 158.397 530.983 157.973C530.906 157.55 530.714 156.318 530.598 155.278C530.406 153.546 529.174 145.845 528.635 142.957C526.825 133.062 523.014 119.741 519.086 109.576C516.43 102.684 509.73 88.7079 507.651 85.7047C507.228 85.1657 506.92 84.6267 506.92 84.5112C506.92 84.2801 504.687 80.6609 502.838 77.8888C501.991 76.6182 501.183 75.3862 501.029 75.1166C500.682 74.5776 505.38 76.1177 511.54 78.6203ZM214.765 103.647C218.616 104.032 225.045 104.84 227.202 105.264C227.625 105.341 228.588 105.533 229.319 105.649C232.168 106.149 240.485 108.228 244.72 109.538C255.809 112.926 268.63 118.547 278.14 124.168C279.718 125.092 281.066 125.824 281.143 125.824C281.952 125.824 299.393 138.222 302.935 141.302C303.474 141.802 304.36 142.534 304.86 142.919C312.484 149.118 327.731 164.596 335.97 174.529C337.549 176.416 338.935 178.071 339.05 178.187C339.166 178.302 340.09 179.496 341.168 180.882C342.207 182.268 343.17 183.462 343.285 183.577C344.402 184.578 351.91 195.59 355.529 201.442C358.532 206.332 365.078 218.884 366.926 223.234C369.159 228.625 372.586 238.212 373.125 240.753C373.202 241.176 373.741 243.41 374.318 245.758C375.55 250.956 375.435 250.494 376.012 254.229C376.243 255.923 376.513 257.732 376.59 258.194C377.437 263.354 377.437 281.026 376.59 284.068C376.513 284.376 376.359 285.338 376.205 286.185C374.78 296.196 371.431 306.861 366.772 316.525C366.117 317.95 365.386 319.182 365.232 319.297C365.078 319.413 364.808 318.758 364.693 317.834C364.539 316.949 363.807 313.714 363.076 310.634C362.306 307.554 361.651 304.782 361.574 304.435C360.611 300.008 355.144 284.376 352.449 278.292C345.634 263.123 336.471 248.684 325.806 236.325C321.994 231.936 311.483 221.925 306.323 217.806C301.472 213.917 289.806 205.908 288.997 205.908C288.805 205.908 288.612 205.716 288.612 205.523C288.612 205.292 288.42 205.138 288.227 205.138C287.996 205.138 286.418 204.33 284.685 203.367C274.02 197.322 260.39 191.74 247.184 188.005C245.259 187.466 243.334 186.965 242.949 186.888C242.564 186.773 240.408 186.272 238.175 185.733C235.941 185.194 233.439 184.655 232.592 184.54C231.745 184.386 230.436 184.155 229.704 183.962C227.818 183.5 218.693 182.153 214.303 181.691C212.301 181.46 209.876 181.19 208.913 181.113C199.21 180.074 178.227 180.035 165.791 181.075C161.786 181.383 158.976 181.691 158.09 181.845C157.551 181.922 156.165 182.114 155.01 182.23C152.353 182.538 147.156 183.385 141.919 184.386C139.686 184.809 137.453 185.271 136.914 185.348C134.45 185.81 128.366 187.466 121.706 189.43C117.393 190.739 107.383 194.358 104.264 195.744C103.148 196.244 102.147 196.668 102.07 196.668C101.762 196.668 90.3264 202.328 87.7082 203.752C85.3596 205.061 78.5062 209.22 75.6185 211.145L74.1555 212.069L75.4645 208.527C76.1961 206.563 76.8891 204.599 77.0431 204.176C79.0837 198.478 84.8591 186.657 88.8248 180.035C91.0964 176.262 95.0236 170.178 95.9862 168.946C96.2172 168.638 97.9883 166.29 99.8749 163.749C106.921 154.354 113.197 147.231 122.707 137.76C132.679 127.903 141.38 121.512 152.854 115.659C159.784 112.117 170.411 108.036 175.031 107.15C175.493 107.073 176.802 106.727 177.88 106.419C180.614 105.649 184.118 104.994 188.699 104.417C189.546 104.301 190.47 104.147 190.74 104.032C191.048 103.955 193.281 103.762 195.745 103.647C198.248 103.493 200.289 103.377 200.366 103.3C200.558 103.146 212.263 103.416 214.765 103.647ZM203.523 241.484C209.337 241.831 215.535 242.293 218.924 242.678C219.886 242.794 221.426 242.986 222.389 243.102C226.47 243.564 231.976 244.411 239.137 245.758C248.955 247.568 262.623 251.649 271.479 255.345C302.319 268.359 322.61 288.496 333.775 317.18C334.931 320.183 336.009 323.417 335.855 323.571C335.816 323.61 334.738 322.993 333.467 322.146C318.336 312.097 303.089 304.743 287.65 300.046C283.145 298.66 273.597 296.273 270.901 295.811C270.17 295.695 269.284 295.503 268.976 295.426C268.668 295.31 267.744 295.156 266.897 295.079C266.089 294.964 265.126 294.771 264.78 294.694C264.433 294.579 263.201 294.425 262.046 294.271C260.891 294.155 259.428 294.001 258.773 293.886C250.996 292.615 234.671 292.423 225.854 293.501C224.006 293.732 219.27 294.386 216.998 294.733C206.526 296.235 191.125 300.97 177.341 306.9C176.802 307.131 176.302 307.323 176.186 307.362C174.877 307.747 164.443 313.137 158.86 316.294C155.087 318.45 142.343 326.613 141.919 327.152C141.804 327.306 140.533 328.268 139.032 329.308C136.683 330.963 127.827 337.778 127.288 338.356C127.173 338.471 125.902 339.588 124.401 340.858C99.5284 361.996 78.9682 388.678 66.6861 415.745C64.992 419.48 64.0294 421.675 64.0679 421.79C64.1064 421.867 63.6444 422.907 63.1054 424.1C60.8722 429.144 55.5204 446.778 54.8274 451.475C54.7889 451.937 54.5579 452.399 54.4039 452.438C54.0188 452.553 50.6307 445.199 48.359 439.231C44.2778 428.528 41.2361 417.054 39.5035 405.542C39.2725 404.041 39.003 402.462 38.926 401.961C38.849 401.461 38.6565 399.921 38.541 398.496C38.387 397.072 38.233 395.647 38.156 395.339C38.0405 395.031 37.8864 393.375 37.7709 391.681C37.6554 389.987 37.4629 387.831 37.3859 386.869C36.5389 377.243 36.5389 359.763 37.3859 352.987C38.464 344.324 39.542 338.779 41.5056 332.196C43.4693 325.496 45.0478 321.569 48.3975 314.754C51.5547 308.363 56.6755 300.123 60.2562 295.618C65.839 288.611 72.3844 281.681 77.6977 277.291C83.6655 272.325 92.3285 266.203 97.8343 263.084C113.543 254.229 132.91 247.375 151.16 244.257C158.475 242.986 158.591 242.948 160.978 242.717C162.056 242.601 163.788 242.408 164.828 242.293C168.524 241.869 169.872 241.754 174.839 241.484C177.611 241.369 179.882 241.215 179.921 241.176C180.113 241.022 199.441 241.253 203.523 241.484ZM659.504 262.199C664.355 272.286 669.283 286.763 671.17 296.196C671.247 296.62 671.593 298.275 671.901 299.854C672.44 302.587 673.364 308.247 673.826 311.597C673.942 312.444 674.096 313.637 674.211 314.292C674.327 314.908 674.481 316.641 674.596 318.142C674.712 319.605 674.905 321.261 674.982 321.8C675.174 322.916 675.482 327.691 675.752 332.773C675.983 337.201 676.021 353.025 675.79 355.297C675.675 356.259 675.521 358.146 675.367 359.532C675.059 363.305 674.519 366.539 673.056 374.163C672.594 376.511 669.437 386.83 668.629 388.601C668.436 389.025 667.82 390.488 667.243 391.874C662.507 403.54 653.382 417.401 644.411 426.718C635.132 436.267 627.085 442.543 614.148 450.243C603.945 456.288 583.308 464.219 571.103 466.761C570.718 466.838 570.102 466.992 569.755 467.107C568.985 467.338 568.446 467.454 561.208 468.724C555.009 469.802 554.431 469.879 551.967 470.187C544.69 471.034 543.574 471.111 537.914 471.419C529.058 471.92 508.383 471.65 502.684 470.996C501.953 470.919 499.951 470.765 498.257 470.649C496.563 470.495 494.56 470.341 493.829 470.226C493.097 470.149 491.634 469.995 490.556 469.841C489.517 469.725 488.208 469.571 487.669 469.456C487.13 469.379 485.859 469.186 484.781 469.071C483.741 468.955 482.355 468.763 481.701 468.609C481.085 468.493 480.199 468.339 479.776 468.301C479.352 468.262 478.313 468.108 477.465 467.916C476.618 467.762 475.579 467.569 475.155 467.492C472.152 466.953 470.035 466.491 461.487 464.45C461.179 464.373 459.793 463.95 458.407 463.565C457.021 463.141 454.711 462.448 453.209 461.986C446.702 460.023 435.614 455.402 429.338 451.976C414.283 443.813 403.503 434.842 393.184 421.906C389.065 416.708 382.827 405.927 380.055 399.189C378.438 395.224 376.359 389.448 376.513 389.294C376.59 389.217 377.09 389.487 377.591 389.872C378.784 390.796 387.178 396.032 389.681 397.457C395.918 400.96 397.458 401.807 402.078 404.041C404.85 405.388 408.085 406.851 409.201 407.313C410.318 407.737 411.781 408.353 412.397 408.622C419.289 411.779 434.42 416.169 445.124 418.094C450.129 418.979 450.475 419.018 454.172 419.403C455.558 419.557 456.982 419.749 457.367 419.826C458.907 420.096 467.455 420.481 472.268 420.481C479.583 420.481 488.169 419.826 493.636 418.825C494.714 418.633 496.255 418.363 497.102 418.248C497.949 418.132 498.911 417.978 499.219 417.863C499.527 417.786 500.22 417.632 500.759 417.516C502.646 417.208 508.306 415.784 511.54 414.821C530.637 409.238 547.655 401.268 565.135 389.718C570.179 386.368 580.112 379.13 583.269 376.473C591.47 369.62 596.668 364.807 603.175 358.184C605.601 355.72 607.795 353.487 607.988 353.218C608.219 352.987 609.682 351.331 611.299 349.521C618.73 341.205 626.238 331.348 632.052 322.185C633.9 319.336 635.517 316.718 635.671 316.41C635.825 316.102 636.595 314.716 637.442 313.329C640.137 308.863 647.337 294.001 649.493 288.496C653.228 279.063 656.616 268.089 657.656 262.045C657.887 260.89 658.156 260.196 658.387 260.196C658.464 260.196 658.965 261.121 659.504 262.199ZM279.141 335.853C285.224 336.354 290.153 337.201 296.082 338.741C300.933 340.011 307.478 342.129 308.056 342.63C308.249 342.822 308.634 342.976 308.903 342.976C309.673 342.976 318.529 347.096 318.837 347.596C318.914 347.75 318.298 348.02 317.374 348.135C311.829 349.021 298.045 352.833 289.768 355.759C284.339 357.684 283.53 357.992 281.913 358.723C281.028 359.109 279.564 359.725 278.602 360.11C266.474 365.23 250.534 375.01 240.1 383.75C238.945 384.712 237.482 385.945 236.827 386.484C232.476 390.103 220.425 402.847 216.806 407.698C216.382 408.237 215.343 409.623 214.457 410.778C212.417 413.512 206.988 421.444 206.988 421.752C206.988 421.867 206.641 422.445 206.218 423.061C204.293 425.756 198.209 437.614 195.822 443.313C194.937 445.392 193.974 447.625 193.705 448.28C192.704 450.474 188.045 464.797 187.506 467.146C187.467 467.338 187.236 468.301 186.967 469.263C186.697 470.226 186.466 471.265 186.389 471.573C186.312 471.881 186.081 472.844 185.889 473.691C185.003 477.002 182.963 487.744 182.539 491.171C182.424 492.056 182.27 493.289 182.192 493.866C180.152 505.994 179.574 532.33 180.999 547.423C181.191 549.81 181.615 553.737 181.769 555.123C182.154 558.126 182.385 559.974 182.539 560.937C182.655 561.476 182.809 562.515 182.886 563.247C183.001 563.978 183.155 565.018 183.271 565.519C183.386 566.058 183.579 567.097 183.656 567.829C184.464 573.45 187.506 585.848 190.047 593.818C194.552 607.794 201.713 623.079 208.874 634.014C210.107 635.823 211.185 637.518 211.339 637.749C211.762 638.48 202.175 634.938 196.015 632.127C189.469 629.124 183.617 626.005 177.341 622.155C172.759 619.345 172.605 619.268 172.182 618.921C171.951 618.767 169.756 617.227 167.331 615.533C152.199 604.868 134.719 588.466 125.286 576.107C120.089 569.253 114.313 558.935 111.195 550.888C107.999 542.648 105.111 531.521 104.341 524.514C104.264 523.705 104.11 522.55 103.995 522.011C102.917 516.159 103.148 496.561 104.38 491.017C104.457 490.593 104.649 489.361 104.765 488.322C105.15 485.203 105.689 482.546 107.306 476.078C109.885 465.721 113.389 456.095 118.163 446.162C120.243 441.811 121.244 439.925 124.786 433.649C127.712 428.451 134.026 419.21 139.147 412.665C140.533 410.894 143.96 406.736 144.191 406.505C144.345 406.389 145.538 405.003 146.886 403.424C149.928 399.882 163.942 385.868 168.563 381.709C170.449 380.054 174.146 376.897 176.841 374.663C179.574 372.469 182.115 370.351 182.539 370.005C186.428 366.809 202.06 356.221 205.063 354.758C205.371 354.604 206.872 353.795 208.335 352.948C211.262 351.293 220.964 346.518 223.159 345.671C223.89 345.402 224.66 345.017 224.891 344.824C225.084 344.67 225.507 344.516 225.854 344.516C226.162 344.516 226.855 344.285 227.394 344.016C229.55 342.899 239.137 339.857 245.105 338.433C255.385 335.93 268.399 334.929 279.141 335.853ZM323.418 377.32C323.264 377.59 322.302 379.014 321.339 380.516C312.638 393.529 305.245 408.584 300.51 422.868C298.546 428.759 295.889 438.846 295.312 442.466C295.196 443.274 295.004 444.314 294.927 444.776C294.234 448.357 293.733 451.629 293.387 454.44C293.271 455.71 293.079 457.096 293.002 457.482C292.771 458.752 292.309 468.532 292.309 472.343C292.347 476.386 292.771 485.473 293.04 486.974C293.117 487.513 293.464 489.939 293.772 492.364C294.58 498.063 294.696 498.717 296.197 505.07C299.393 518.777 305.746 535.256 312.83 548.385C315.063 552.505 315.91 554.045 316.526 555.046C316.758 555.392 317.412 556.548 318.028 557.626C319.607 560.321 326.383 570.601 326.999 571.217C327.269 571.486 327.5 571.871 327.5 572.025C327.5 572.179 327.808 572.641 328.193 573.065C328.539 573.489 330.464 575.953 332.466 578.571C334.468 581.189 336.355 583.615 336.702 583.961C337.048 584.308 337.857 585.309 338.473 586.117C339.127 586.964 339.897 587.927 340.244 588.235C340.59 588.543 342.592 590.699 344.672 593.048C357.993 607.832 374.78 622.078 391.221 632.512C399.229 637.556 401.347 638.788 410.857 643.485C420.906 648.452 430.185 652.11 439.541 654.844C441.119 655.306 442.852 655.845 443.391 655.999C444.315 656.307 451.438 658.001 453.017 658.27C453.44 658.347 443.776 662.698 439.579 664.315C435.575 665.894 425.449 669.205 423.293 669.628C422.831 669.744 421.021 670.167 419.327 670.591C415.824 671.438 409.009 672.786 406.429 673.132C405.466 673.248 404.427 673.44 404.119 673.517C403.811 673.594 402.694 673.748 401.616 673.902C400.577 674.018 398.382 674.287 396.803 674.48C394.147 674.826 390.913 675.134 386.985 675.442C384.252 675.635 370.892 676.135 367.542 676.135C363.461 676.135 352.873 675.635 352.526 675.442C352.411 675.365 351.255 675.173 349.985 675.057C348.753 674.942 346.866 674.672 345.788 674.48C344.749 674.287 343.362 674.018 342.708 673.902C337.587 673.055 329.309 670.668 323.649 668.435C300.818 659.425 281.297 643.293 267.359 621.924C262.662 614.724 257.464 604.906 254.923 598.438C254.346 596.936 253.575 595.05 253.19 594.203C250.88 589.082 246.684 574.605 244.951 565.904C243.873 560.59 243.796 560.167 243.18 555.701C242.949 554.006 242.679 552.043 242.602 551.388C242.41 550.195 242.256 548.77 241.832 544.766C241.37 540.3 241.139 533.754 241.101 525.861C241.101 517.583 241.486 504.724 241.832 502.722C241.909 502.221 242.063 500.257 242.179 498.409C242.333 496.561 242.487 494.482 242.602 493.789C242.679 493.096 242.872 491.787 242.949 490.824C243.18 488.899 244.219 481.622 244.527 479.851C244.643 479.197 244.913 477.811 245.144 476.733C245.336 475.655 245.606 474.268 245.683 473.652C245.798 473.036 246.068 471.766 246.26 470.803C246.491 469.841 246.722 468.724 246.799 468.301C247.993 462.256 251.496 450.821 254.538 443.274C267.629 410.778 289.036 389.217 318.914 378.398C323.611 376.704 323.803 376.665 323.418 377.32ZM347.559 394.261C347.559 394.53 347.636 395.031 347.713 395.339C347.752 395.647 347.906 396.533 348.06 397.264C348.791 401.884 353.643 419.018 355.067 422.175C355.375 422.83 355.606 423.523 355.606 423.715C355.606 423.869 356.184 425.486 356.877 427.296C360.611 436.806 365.463 446.585 369.698 453.208C370.622 454.632 371.392 455.903 371.392 456.018C371.392 456.211 372.932 458.483 373.317 458.868C373.433 458.983 373.702 459.33 373.895 459.715C374.549 460.793 378.438 466.376 378.669 466.568C378.823 466.684 379.824 467.954 380.979 469.417C390.297 481.391 401.501 492.056 414.322 501.104C426.142 509.459 441.543 517.16 455.943 521.934C462.835 524.244 463.951 524.552 470.574 526.208C475.964 527.555 477.812 527.94 481.893 528.749C484.126 529.173 494.56 530.828 496.524 531.021C497.679 531.175 499.527 531.367 500.567 531.483C512.233 532.792 535.527 532.984 546.962 531.868C547.693 531.791 549.542 531.598 551.005 531.483C552.506 531.329 554.316 531.136 555.047 531.059C555.779 530.944 557.088 530.79 557.935 530.713C558.782 530.597 560.592 530.366 561.978 530.135C563.364 529.904 565.173 529.635 566.02 529.481C590.161 525.746 615.188 516.12 635.979 502.645L638.212 501.22L637.018 504.57C632.129 518.469 625.622 530.674 614.957 546.075C614.495 546.691 614.071 547.307 613.956 547.423C613.84 547.538 613.032 548.578 612.185 549.733C602.058 563.362 587.967 578.263 577.533 586.348C567.06 594.472 555.471 600.517 543.304 604.175C540.763 604.945 538.183 605.715 537.529 605.907C536.913 606.1 535.873 606.369 535.219 606.485C534.603 606.639 533.64 606.831 533.101 606.947C531.33 607.332 524.053 608.564 522.128 608.795C514.235 609.758 500.297 609.796 493.636 608.833C492.135 608.641 489.44 608.256 487.476 608.025C486.629 607.909 485.32 607.678 484.588 607.486C483.857 607.293 482.548 607.024 481.701 606.908C480.854 606.754 477.812 606.061 474.963 605.291C449.128 598.553 424.564 584.924 402.194 564.941C399.191 562.284 384.406 547.384 381.749 544.342C380.363 542.764 378.361 540.492 377.36 539.337C374.665 536.295 367.311 527.016 364.577 523.166C348.522 500.719 338.819 478.042 336.009 456.365C335.239 450.551 335.123 448.665 335.085 442.697C335.085 435.728 335.354 431.839 336.355 425.987C338.242 414.898 340.436 407.929 345.057 398.111C345.981 396.148 346.751 394.376 346.751 394.145C346.751 393.606 347.521 393.722 347.559 394.261Z" fill="white"/>
</svg>
